<svg xmlns="http://www.w3.org/2000/svg" fill="none" viewBox="0 0 128 128">
  <path fill="#fff" d="M0 0h128v128H0z"/>
  <path fill="#002856" d="M11.3677 11.4045H116.293V116.332H11.3677V11.4045z"/>
  <path fill="#EBA900" d="M38.7264 61.5667l2.2764-2.9317c6.2777-.2785 11.4384-4.6908 16.5143-10.3491l1.6542 2.1255c1.2079-3.5199 1.7597-7.2458 1.626-10.9793-1.7674 1.9789-3.5206 4.251-5.9525 4.6761l1.1028 1.2753c-4.9627 2.8291-10.2366 6.23-15.5528 6.098V28.0276h10.1518v-2.8878H40.0555v-1.1874c3.2095-.1612 4.1427-7.8131-1.2584-7.7691h-.41c-4.4538-.0586-4.4538 7.6519-1.1029 7.7691v1.1874H27.387l.311 2.7998h9.1903v23.454c-5.2738.1319-10.5193-3.2689-15.5528-6.098l1.117-1.2754c-2.4319-.4251-4.2417-2.6972-5.9525-4.6761-.1229 3.7114.4386 7.413 1.6542 10.9061l1.6543-2.1255c5.0617 5.6583 10.3356 9.8946 16.5991 10.1731l2.3188 3.2689z"/>
  <path fill="#002856" d="M40.6212 20.2144c0 .3595-.1028.7109-.2955 1.0099-.1926.2989-.4664.5319-.7868.6694-.3204.1376-.6729.1736-1.013.1035-.3401-.0702-.6524-.2433-.8976-.4975-.2452-.2542-.4122-.5781-.4799-.9307-.0676-.3526-.0329-.718.0998-1.0502.1327-.3321.3574-.616.6457-.8157.2884-.1998.6273-.3064.9741-.3064.465 0 .9109.1915 1.2397.5324s.5135.8032.5135 1.2853z"/>
  <path fill="#EBA900" d="M88.6933 61.5665l2.2198-2.9317c6.2777-.2785 11.4389-4.6908 16.5139-10.3491l1.655 2.1255c1.201-3.4968 1.763-7.1956 1.654-10.9061-1.767 1.979-3.535 4.2511-5.953 4.6762l1.103 1.2753c-4.962 2.8291-10.2504 6.2299-15.5526 6.098V28.1007h10.1516v-2.9611H90.0224v-1.1874c3.2944-.1612 4.1993-7.8277-1.2018-7.8277h-.4101c-4.4961-.132-4.5386 7.6079-1.1593 7.7251v1.1874h-9.8973l.41 2.9024h9.1903v23.454c-5.3586.2199-10.6042-3.181-15.567-5.9515l1.117-1.2753c-2.4319-.4251-4.2417-2.6972-5.9525-4.6761-.1228 3.7114.4386 7.4129 1.6543 10.9061l1.6542-2.1255c5.0618 5.6582 10.3356 9.8946 16.5992 10.1731l2.2339 3.1223z"/>
  <path fill="#002856" d="M90.588 20.2144c0 .3595-.1028.7109-.2955 1.0099-.1926.2989-.4664.5319-.7868.6694-.3204.1376-.6729.1736-1.013.1035-.3401-.0702-.6525-.2433-.8977-.4975-.2451-.2542-.4121-.5781-.4798-.9307-.0676-.3526-.0329-.718.0998-1.0502.1327-.3321.3574-.616.6457-.8157.2883-.1998.6273-.3064.9741-.3064.465 0 .9109.1915 1.2397.5324s.5135.8032.5135 1.2853z"/>
  <path fill="#EBA900" d="M38.7266 110.615l2.2763-3.049c6.2777-.264 11.4385-4.691 16.5144-10.3493l1.6542 2.1255c1.2003-3.4966 1.752-7.197 1.626-10.9061-1.7674 1.9789-3.5206 4.251-5.9525 4.6761l1.1028 1.2753c-4.9627 2.8292-10.2366 6.2305-15.5528 6.0985V77.0316h10.1517v-2.8878H40.0556v-1.1873c3.2096-.1466 4.1428-7.8131-1.2583-7.7691h-.4101c-4.4962-.1173-4.5386 7.6078-1.1594 7.7251v1.1874h-9.8972l.311 2.7998h9.1904v23.4543c-5.2739.132-10.5194-3.2693-15.5529-6.0984l1.117-1.2753c-2.4319-.4251-4.2417-2.6972-5.9525-4.6761-.1239 3.7114.4376 7.4132 1.6542 10.9061l1.6543-2.1256c5.0617 5.6583 10.3356 9.8943 16.5991 10.1733l2.3754 3.357z"/>
  <path fill="#002856" d="M40.621 69.2185c.0056.3607-.0924.715-.2816 1.0178-.1892.3027-.4611.5402-.7809.6823-.3198.1421-.6732.1823-1.0151.1155-.342-.0668-.657-.2375-.905-.4905-.2481-.253-.4179-.5768-.4878-.9302-.07-.3534-.037-.7204.0948-1.0542.1319-.3338.3565-.6195.6454-.8205.2889-.2011.629-.3085.9769-.3085.4591.0036.8987.1923 1.2259.5261.3273.3338.5164.7865.5274 1.2622z"/>
  <path fill="#EBA900" d="M88.6937 110.615l2.2198-3.035c6.2777-.278 11.4385-4.705 16.5145-10.3633l1.654 2.1255c1.203-3.4965 1.764-7.1956 1.654-10.9061-1.767 1.9789-3.534 4.251-5.952 4.6761l1.103 1.2753c-4.963 2.8292-10.2511 6.2295-15.5532 6.0985V77.0316h10.1522v-2.8878H90.0228v-1.1873c3.2095-.1466 4.1427-7.8131-1.2584-7.7691h-.41c-4.4962-.1173-4.5386 7.6225-1.1594 7.7251v1.1874h-9.8973l.4666 2.8438h9.1903v23.4543c-5.2738.132-10.5194-3.2693-15.4821-6.0984l1.1169-1.2753c-2.4319-.4251-4.2417-2.6972-5.9525-4.6762-.1239 3.7115.4376 7.4133 1.6543 10.9061l1.6543-2.1255c5.0617 5.6583 10.3355 9.8943 16.5991 10.1733l2.1491 3.313z"/>
  <path fill="#002856" d="M90.5887 69.2185c.0057.3607-.0924.715-.2816 1.0178-.1892.3027-.461.5402-.7808.6823-.3199.1421-.6732.1823-1.0152.1155-.3419-.0668-.6569-.2375-.905-.4905-.248-.253-.4178-.5768-.4878-.9302-.0699-.3534-.0369-.7204.0949-1.0542s.3565-.6195.6454-.8205c.2889-.2011.629-.3085.9769-.3085.459.0036.8987.1923 1.2259.5261.3272.3338.5163.7865.5273 1.2622z"/>
  <path fill="#EBA900" d="M128 0v128H0V0h128zm-4.001 4.14842H4.00133V123.852H123.999V4.14842z"/>
</svg>
