<svg xmlns="http://www.w3.org/2000/svg" viewBox="0 0 200 45">
  <g transform="matrix(.2556 0 0 -.25658 -5.849758 51.493533)">
    <path fill="#1d1d1b" d="M319.1719 25.3066c-14.311 0-24.865 11.264-24.865 25.57 0 14.168 10.484 25.715 25.078 25.715 8.995 0 14.377-3.185 19.338-7.863l-3.827-4.106c-4.178 3.965-8.854 6.797-15.583 6.797-10.98 0-19.196-8.853-19.196-20.398 0-11.549 8.287-20.543 19.196-20.543 6.799 0 11.263 2.619 16.008 7.154l3.685-3.613c-5.173-5.244-10.838-8.713-19.834-8.713M373.9863 46.4883c-.566 6.656-4.391 12.463-11.688 12.463-6.375 0-11.191-5.309-11.899-12.463zm-10.695-16.436c5.029 0 8.57 2.055 11.546 5.172l3.399-3.047c-3.684-4.107-8.145-6.871-15.088-6.871-10.058 0-18.275 7.721-18.275 19.127 0 10.623 7.437 19.125 17.566 19.125 10.839 0 17.074-8.644 17.074-19.408 0-.5 0-1.062-.072-1.703h-29.042c.779-7.932 6.444-12.395 12.892-12.395M394.5225 26.1563h-5.456v36.621h5.456v-6.375c2.409 3.969 6.233 7.156 12.539 7.156 8.854 0 14.026-5.953 14.026-14.662v-22.74h-5.456v21.395c0 6.796-3.684 11.048-10.13 11.048-6.302 0-10.979-4.605-10.979-11.474zM440.0605 36.5703c0-4.465 2.481-6.092 6.162-6.092 1.844 0 3.401.354 5.314 1.274v-4.674c-1.913-.994-3.968-1.561-6.587-1.561-5.88 0-10.344 2.905-10.344 10.344v22.102h-5.098v4.814h5.098v11.049h5.455v-11.049h11.617v-4.814h-11.617zM466.7607 26.1563h-5.456v36.621h5.456v-9.56c2.691 6.091 8.005 10.482 14.944 10.197v-5.877h-.422c-8.004 0-14.522-5.738-14.522-16.787zM490.9863 37.0664c0-4.676 4.252-7.367 9.209-7.367 6.732 0 12.258 4.107 12.258 9.914v3.543c-2.692.779-6.304 1.56-10.77 1.56-6.87 0-10.697-2.974-10.697-7.65m-.636 18.699l-1.63 4.463c4.037 1.84 8.006 3.045 13.319 3.045 9.988 0 15.586-5.1 15.586-14.734v-22.383h-5.245v5.525c-2.55-3.328-6.798-6.303-13.247-6.303-6.797 0-13.668 3.823-13.668 11.475 0 7.791 6.373 11.901 15.655 11.901 4.673 0 8.001-.639 11.26-1.561v1.277c0 6.586-4.039 9.987-10.908 9.987-4.32 0-7.721-1.131-11.122-2.692M529.729 77.869h5.452V26.156h-5.452zM604.3809 40.1133c0 5.451-4.535 8.568-13.176 8.568h-15.654v-17.494h16.646c7.508 0 12.184 3.328 12.184 8.926m-2.764 22.453c0 4.957-3.894 8.149-10.978 8.149h-15.088v-17.073h14.662c6.732 0 11.404 3.045 11.404 8.924m5.666.779c0-6.517-3.965-9.845-7.861-11.546 5.879-1.772 10.627-5.172 10.627-12.041 0-8.571-7.154-13.602-17.992-13.602h-22.03v49.584h21.11c9.771 0 16.146-4.818 16.146-12.395M623 37.0664c0-4.676 4.248-7.367 9.209-7.367 6.729 0 12.254 4.107 12.254 9.914v3.543c-2.692.779-6.303 1.56-10.766 1.56-6.871 0-10.697-2.974-10.697-7.65m-.635 18.699l-1.631 4.463c4.037 1.84 8.002 3.045 13.315 3.045 9.988 0 15.586-5.1 15.586-14.734v-22.383h-5.242v5.525c-2.549-3.328-6.799-6.303-13.247-6.303-6.8 0-13.669 3.823-13.669 11.475 0 7.791 6.375 11.901 15.652 11.901 4.674 0 8.006-.639 11.264-1.561v1.277c0 6.586-4.038 9.987-10.911 9.987-4.322 0-7.72-1.131-11.117-2.692M661.742 77.869h5.451V26.156h-5.451zM687.2363 36.5703c0-4.465 2.479-6.092 6.162-6.092 1.844 0 3.401.354 5.315 1.274v-4.674c-1.914-.994-3.969-1.561-6.588-1.561-5.881 0-10.342 2.905-10.342 10.344v22.102h-5.1v4.814h5.1v11.049h5.453v-11.049h11.617v-4.814h-11.617zM708.975 62.777h5.457V26.154h-5.457zm-.35 14.026h6.232v-6.02h-6.232zM743.6113 25.3066c-10.697 0-18.773 8.713-18.773 19.055 0 10.412 8.076 19.197 18.773 19.197 6.941 0 11.264-2.904 14.662-6.516l-3.613-3.826c-2.903 3.043-6.16 5.526-11.121 5.526-7.438 0-13.104-6.305-13.104-14.241 0-8.004 5.809-14.306 13.461-14.306 4.672 0 8.283 2.338 11.19 5.455l3.468-3.26c-3.679-4.109-8.072-7.084-14.943-7.084"/>
    <path fill="none" stroke="#1d1d1b" stroke-miterlimit="10" stroke-width="2" d="M314.3174 199.6934h-20.096v-61.742c6.53 1.236 13.238 2.428 20.096 3.56zM437.1543 161.332h16.441v16.963h-16.441v17.875h-19.836v-17.875h-8.348v-16.963h8.348v-7.68c6.549.508 13.156.977 19.836 1.409zM499.3965 163.6816c4.869 0 8.664-2.051 11.223-5.51 6.601.139 13.234.242 19.902.309-4.604 12.178-14.736 21.117-31.125 21.117-15.49 0-27.406-9.529-32.229-22.883 6.766.313 13.584.586 20.452.819 2.673 3.878 6.673 6.148 11.777 6.148M583.5781 158.2539c1.789.387 3.689.598 5.729.598h1.046v20.748c-11.742.519-18.271-5.741-22.314-15.399v14.094h-19.832v-19.719c.361 0 .723.002 1.084.002 11.517 0 22.951-.111 34.287-.324M643.8574 158.8516h1.041v20.748c-11.738.52-18.266-5.74-22.309-15.396v14.091h-19.834v-20.502c10.313-.302 20.528-.689 30.622-1.164 2.974 1.479 6.488 2.223 10.48 2.223M687.834 163.6816c7.344 0 12.258-4.641 14.139-11.783 6.488-.598 12.898-1.237 19.226-1.906-2.652 16.285-13.353 29.605-33.365 29.605-15.973 0-28.141-10.139-32.643-24.148 6.411-.389 12.762-.813 19.061-1.27 2.477 5.885 7.143 9.502 13.582 9.502M750.7344 146.7168v.262c0 9.525 7.307 16.181 16.963 16.181 9.654 0 17.088-6.656 17.088-16.181v-.262c0-1.832-.276-3.557-.791-5.158 6.959-1.151 13.754-2.352 20.365-3.608v40.346h-19.83v-9.135c-5.346 5.871-11.742 10.44-22.574 10.44-15.541 0-30.059-11.043-30.967-30.699 6.687-.764 13.279-1.575 19.76-2.426 0 .084-.014.156-.014.24M360.0977 161.1953c1.309.625 4.217 1.232 5.645 1.232 1.429 0 4.334-.607 5.644-1.232 5.049-2.402 7.33-5.988 7.986-10.994 6.286.662 12.661 1.281 19.108 1.867-2.225 10.174-8.322 18.756-17.731 23.539-4.324 2.195-9.339 4-15.007 4-5.67 0-10.688-1.805-15.004-4-11.735-5.959-18.325-17.824-18.659-31.318 6.479.947 13.088 1.851 19.807 2.713.041 6.765 2.139 11.304 8.211 14.193"/>
    <path fill="#1d1d1b" d="M314.3174 108.3555v33.162c-6.858-1.139-13.566-2.324-20.096-3.568v-29.594z"/>
    <path fill="none" stroke="#1d1d1b" stroke-miterlimit="10" stroke-width="2" d="M314.3174 108.3555v33.162c-6.858-1.139-13.566-2.324-20.096-3.568v-29.594z"/>
    <path fill="#1d1d1b" stroke="#1d1d1b" stroke-miterlimit="10" stroke-width="2" d="M437.6738 107.1797c6.654 0 11.484 1.566 15.66 4.051v15.916c-2.875-1.563-6.135-2.481-9.785-2.481-4.439 0-6.396 2.219-6.396 6.787v23.612c-6.678-.434-13.288-.906-19.834-1.414v-25.455c0-16.19 8.22-21.016 20.355-21.016"/>
    <path fill="#1d1d1b" d="M464.8184 142.9336c0-21.398 15.529-36.141 36.539-36.141 12.654 0 22.049 4.957 28.572 13.047l-11.349 10.049c-5.483-5.092-10.309-7.178-16.961-7.178-8.875 0-15.143 4.696-17.098 13.696h48.672c.131 1.834.262 3.656.262 5.222 0 5.92-.979 11.676-2.934 16.852-6.666-.065-13.301-.168-19.902-.309 1.832-2.472 3.031-5.666 3.523-9.363h-29.879c.594 3.406 1.729 6.363 3.36 8.727-6.867-.237-13.69-.506-20.455-.819-1.516-4.189-2.35-8.75-2.35-13.523z"/>
    <path fill="none" stroke="#1d1d1b" stroke-miterlimit="10" stroke-width="2" d="M464.8184 142.9336c0-21.398 15.529-36.141 36.539-36.141 12.654 0 22.049 4.957 28.572 13.047l-11.349 10.049c-5.483-5.092-10.309-7.178-16.961-7.178-8.875 0-15.143 4.696-17.098 13.696h48.672c.131 1.834.262 3.656.262 5.222 0 5.92-.979 11.676-2.934 16.852-6.666-.065-13.301-.168-19.902-.309 1.832-2.472 3.031-5.666 3.523-9.363h-29.879c.594 3.406 1.729 6.363 3.36 8.727-6.867-.237-13.69-.506-20.455-.819-1.516-4.189-2.35-8.75-2.35-13.523z"/>
    <path fill="#1d1d1b" d="M568.0391 108.3555v25.836c0 14.115 5.793 21.963 15.539 24.066-11.336.211-22.769.319-34.287.319h-1.084v-50.221z"/>
    <path fill="none" stroke="#1d1d1b" stroke-miterlimit="10" stroke-width="2" d="M568.0391 108.3555v25.836c0 14.115 5.793 21.963 15.539 24.066-11.336.211-22.769.319-34.287.319h-1.084v-50.221z"/>
    <path fill="#1d1d1b" d="M622.584 108.3555v25.836c0 11.646 3.943 19.023 10.793 22.439-10.096.473-20.311.862-30.623 1.164v-49.439z"/>
    <path fill="none" stroke="#1d1d1b" stroke-miterlimit="10" stroke-width="2" d="M622.584 108.3555v25.836c0 11.646 3.943 19.023 10.793 22.439-10.096.473-20.311.862-30.623 1.164v-49.439z"/>
    <path fill="#1d1d1b" d="M653.2578 142.9336c0-21.398 15.523-36.141 36.537-36.141 12.654 0 22.049 4.957 28.574 13.047l-11.353 10.049c-5.479-5.092-10.305-7.178-16.963-7.178-8.869 0-15.137 4.696-17.092 13.696h48.67c.125 1.834.264 3.656.264 5.222 0 2.844-.244 5.635-.694 8.362-6.322.675-12.734 1.31-19.228 1.91.264-.987.463-2.016.607-3.092h-29.883c.342 1.949.866 3.742 1.555 5.369-6.293.461-12.65.885-19.064 1.27-1.237-3.84-1.93-7.953-1.93-12.254z"/>
    <path fill="none" stroke="#1d1d1b" stroke-miterlimit="10" stroke-width="2" d="M653.2578 142.9336c0-21.398 15.523-36.141 36.537-36.141 12.654 0 22.049 4.957 28.574 13.047l-11.353 10.049c-5.479-5.092-10.305-7.178-16.963-7.178-8.869 0-15.137 4.696-17.092 13.696h48.67c.125 1.834.264 3.656.264 5.222 0 2.844-.244 5.635-.694 8.362-6.322.675-12.734 1.31-19.228 1.91.264-.987.463-2.016.607-3.092h-29.883c.342 1.949.866 3.742 1.555 5.369-6.293.461-12.65.885-19.064 1.27-1.237-3.84-1.93-7.953-1.93-12.254z"/>
    <path fill="#1d1d1b" d="M730.9043 146.7168c0-20.748 14.742-32.621 31.053-32.621 10.568 0 16.963 4.31 22.834 11.355v-3.396c0-12.527-6.391-19.047-19.963-19.047-9.264 0-16.442 2.348-23.625 6.391l-6.774-14.875c8.864-4.698 19.569-7.301 30.918-7.301 13.573 0 23.621 2.867 30.141 9.387 5.875 5.875 8.875 15.013 8.875 27.535v13.806c-6.615 1.256-13.412 2.457-20.369 3.608-2.158-6.682-8.5-11.022-16.297-11.022-9.572 0-16.83 6.416-16.951 15.94-6.479.851-13.069 1.662-19.758 2.426-.025-.639-.084-1.26-.084-1.924z"/>
    <path fill="none" stroke="#1d1d1b" stroke-miterlimit="10" stroke-width="2" d="M730.9043 146.7168c0-20.748 14.742-32.621 31.053-32.621 10.568 0 16.963 4.31 22.834 11.355v-3.396c0-12.527-6.391-19.047-19.963-19.047-9.264 0-16.442 2.348-23.625 6.391l-6.774-14.875c8.864-4.698 19.569-7.301 30.918-7.301 13.573 0 23.621 2.867 30.141 9.387 5.875 5.875 8.875 15.013 8.875 27.535v13.806c-6.615 1.256-13.412 2.457-20.369 3.608-2.158-6.682-8.5-11.022-16.297-11.022-9.572 0-16.83 6.416-16.951 15.94-6.479.851-13.069 1.662-19.758 2.426-.025-.639-.084-1.26-.084-1.924z"/>
    <path fill="#1d1d1b" stroke="#1d1d1b" stroke-miterlimit="10" stroke-width="2" d="M379.6035 146.832v-38.455h19.834v34.842c0 3.043-.338 6.006-.955 8.849-6.447-.588-12.822-1.205-19.109-1.867.14-1.064.23-2.174.23-3.369"/>
    <path fill="#1d1d1b" d="M332.0488 142.959v-34.58h19.834v38.455c0 .053.008.109.008.17-6.719-.861-13.33-1.768-19.807-2.719-.01-.357-.035-.713-.035-1.068z"/>
    <path fill="none" stroke="#1d1d1b" stroke-miterlimit="10" stroke-width="2" d="M332.0488 142.959v-34.58h19.834v38.455c0 .053.008.109.008.17-6.719-.861-13.33-1.768-19.807-2.719-.01-.357-.035-.713-.035-1.068z"/>
    <path fill="none" stroke="#1d1d1b" stroke-miterlimit="10" stroke-width="1.5" d="M140.7305 104.0859c-40.781 0-73.838 16.527-73.838 36.92s33.057 36.92 73.838 36.92c40.78 0 73.838-16.527 73.838-36.92s-33.058-36.92-73.838-36.92zm0 95.467c-64.669 0-117.094-26.213-117.094-58.547 0-32.338 52.425-58.549 117.094-58.549 64.668 0 117.092 26.211 117.092 58.549 0 32.334-52.424 58.547-117.092 58.547z"/>
    <path fill="#1d1d1b" d="M257.8232 141.0039c0 2.424-.294 4.807-.862 7.148l-42.94-2.634c.362-1.481.546-2.987.546-4.514 0-6.432-3.613-12.764-9.41-18.039-7.548-6.723-19.174-12.149-33.212-15.428l18.276-19.607c22.19 5.178 40.576 13.74 52.551 24.351l.012-.004c.058.053.111.106.17.159.067.06.142.121.21.181l-.014.004c9.114 8.338 14.673 18.227 14.673 28.383M23.6367 141.0059c0 10.287 5.305 19.951 14.623 28.354l37.935-10.399c-5.925-5.316-9.302-11.437-9.302-17.955 0-1.523.182-3.025.541-4.498l-42.934-2.648c-.569 2.343-.863 4.726-.863 7.146M163.1143 198.4824c24.751-2.393 46.719-8.686 63.253-17.545l-31.687-14.725c-10.428 5.581-24.277 9.54-39.876 11.043zM158.1035 167.6836c5.272-4.059 8.589-10.193 8.589-17.854 0-2.009-.229-3.968-.662-5.847-.156-.674-.335-1.334-.54-1.985-2.486-5.695-12.626-9.957-24.76-9.957-12.135 0-22.277 4.262-24.762 9.957-.207.651-.386 1.311-.544 1.985-.43 1.879-.659 3.838-.659 5.847 0 7.659 3.317 13.795 8.589 17.854-22.48-3.66-38.733-14.217-38.733-26.678 0-15.492 25.121-28.054 56.11-28.054 30.986 0 56.105 12.562 56.105 28.054 0 12.463-16.253 23.02-38.733 26.678"/>
    <path fill="none" stroke="#1d1d1b" stroke-miterlimit="10" stroke-width="1.5" d="M140.7314 172.6113c14.339 0 25.961-9.01 25.961-23.352 0-2.009-.229-3.968-.661-5.847-.155-.674-.336-1.334-.541-1.985-2.486-5.695-12.625-9.957-24.759-9.957-12.136 0-22.277 4.262-24.762 9.957-.208.651-.386 1.311-.544 1.985-.431 1.879-.659 3.838-.659 5.847 0 14.342 11.623 23.352 25.965 23.352"/>
    <path fill="#1d1d1b" d="M136.5479 187.832c0 2.453 1.874 4.443 4.182 4.443 2.308 0 4.18-1.99 4.18-4.443v-20.744c0-2.459-1.872-4.449-4.18-4.449s-4.182 1.99-4.182 4.449z"/>
  </g>
</svg>
