<svg xmlns="http://www.w3.org/2000/svg" viewBox="0 0 99 113">
  <path d="M49.5006 11.4857c.9488.0089 1.8793.2634 2.7012.7388l.0004-.0012 34.0311 19.6271c1.7143.9884 2.7712 2.8202 2.7712 4.8024v16.8271c-.0002.2432.0635.4822.1848.693.1212.2107.2957.3858.5058.5075.2102.1217.4486.1858.6913.1858.2427.0001.4811-.0639.6913-.1856l7.2312-4.1837c.4281-.2476.6911-.7054.6911-1.2007V30.6349c-.0005-.8968-.2432-1.7767-.7023-2.5465l.002-.0011c-.0066-.0074-.012-.0155-.0186-.0214-.2797-.4618-.6334-.8743-1.0469-1.2209-.0158-.0143-.0298-.0283-.0436-.0422-.0199-.02-.0395-.0397-.0639-.0593-.015-.0105-.0301-.0217-.0444-.0334l-.0948-.0701c-1.0297-.7863-2.8552-1.7524-4.1846-2.456-.1339-.0708-.2627-.139-.3852-.2041l-.4997-.2861c-.015-.0126-.0299-.0253-.0447-.038-.0592-.0508-.1181-.1013-.1911-.1453L52.3275.739208c-.8589-.496225-1.8353-.751417-2.8265-.738759-.9918-.012345-1.9685.242817-2.8281.738759L4.02225 25.419c-.25649.1488-.51939.2944-.76976.4331-.4197.2325-.80416.4455-1.06406.6208-1.09905.8054-1.632717 1.7845-1.686084 1.983C.112148 29.2233 0 30.1295 0 31.019v50.9616c.000233.9726.255873 1.9281.741231 2.7703.485359.8422 1.183339 1.5416 2.023799 2.0278L46.7978 112.259c.7929.46 1.6879.713 2.6034.737V113l.0286-.001.0147.001v-.001c.9951.014 1.9756-.241 2.8381-.739l38.5047-22.2809c.1188-.0687.3471-.1886.6528-.3492 1.2343-.6482 3.7297-1.9587 5.3672-3.2334.0193-.0167.0406-.0306.0592-.0465.8043-.6314 1.3728-1.2496 1.4788-1.774.4268-.7984.6515-1.6896.6543-2.5954V60.7349c.0002-.2433-.0635-.4824-.1847-.6932-.1213-.2108-.2958-.3859-.506-.5076-.2102-.1217-.4487-.1858-.6914-.1858-.2428 0-.4813.0641-.6915.1858l-7.23 4.1841c-.4281.2473-.6911.7055-.6911 1.2008v11.4062c0 .9726-.2555 1.9281-.7409 2.7703-.4853.8423-1.1832 1.5416-2.0237 2.0278L52.2826 100.774c-.8341.482-1.7794.738-2.7422.741-.9631-.003-1.9085-.259-2.7426-.742L12.6894 81.0357c-1.7113-.9896-2.76508-2.819-2.76508-4.7989V36.7609c.00023-.9728.25588-1.9284.74118-2.7708.4854-.8424 1.1834-1.542 2.0239-2.0284l34.1084-19.7372c.8226-.4752 1.7534-.7299 2.7028-.7388z"/>
  <path fill-rule="evenodd" d="M61.7294 35.5309c0 5.1239-3.15 9.512-7.6187 11.3327v32.152s12.3045-7.6328 13.8414-9.1591c1.5369-1.5263 1.5369-4.5794 1.5369-4.5794h-4.6107s8.4529-9.1589 9.9898-9.1589c1.5369 0 .7685 15.2649-.7684 16.7913C72.5628 74.436 51.0369 89.701 49.5 89.701c-1.5369 0-23.0628-15.265-24.5997-16.7915-1.5369-1.5264-2.3053-16.7914-.7684-16.7913 1.5369.0001 9.9898 9.1589 9.9898 9.1589H29.511s0 3.0527 1.5369 4.5794c1.5369 1.5266 13.8414 9.1591 13.8414 9.1591V46.8637c-4.4688-1.8207-7.6187-6.2088-7.6187-11.3328 0-6.7556 5.4753-12.232 12.2294-12.232s12.2294 5.4764 12.2294 12.232zM49.5 40.1179c2.5328 0 4.586-2.0537 4.586-4.587 0-2.5333-2.0532-4.587-4.586-4.587-2.5328 0-4.586 2.0537-4.586 4.587 0 2.5333 2.0532 4.587 4.586 4.587z" clip-rule="evenodd"/>
</svg>
