<svg xmlns="http://www.w3.org/2000/svg" viewBox="0 0 22 16">
  <path d="M15.364 12.875c-.29 0-.567-.118-.772-.33a1.143 1.143 0 01-.32-.795c0-.298.116-.585.32-.796a1.071 1.071 0 011.543.001c.205.21.32.497.32.795 0 .298-.115.585-.32.796-.205.21-.482.329-.771.329zm1.09-6.75L17.88 8h-3.244V6.125h1.819zm-9.818 6.75c-.289 0-.566-.118-.771-.33a1.143 1.143 0 01-.32-.795c0-.298.115-.585.32-.796.205-.21.482-.329.771-.329.29 0 .567.118.772.33a1.148 1.148 0 010 1.591c-.205.21-.482.329-.772.329zM16.818 5h-2.182V2H4.455C3.647 2 3 2.667 3 3.5v8.25h1.455c0 .597.23 1.169.639 1.591.409.422.964.659 1.542.659.579 0 1.134-.237 1.543-.659.41-.422.64-.994.64-1.591h4.363c0 .597.23 1.169.639 1.591.409.422.964.659 1.543.659a2.15 2.15 0 001.542-.659c.41-.422.64-.994.64-1.591H19V8l-2.182-3z"/>
</svg>
