<svg xmlns="http://www.w3.org/2000/svg" viewBox="0 0 16 16">
  <path d="M2.4 11V6.2H1V5h2.8v6H2.4zM15 9.8c0 .318-.148.623-.41.848a1.526 1.526 0 01-.99.352h-2.8V9.8h2.8V8.6h-1.4V7.4h1.4V6.2h-2.8V5h2.8c.371 0 .727.126.99.351.262.226.41.53.41.849v.9a.84.84 0 01-.307.636A1.145 1.145 0 0113.95 8c.279 0 .546.095.743.264A.84.84 0 0115 8.9v.9zm-5.6 0V11H5.2V8.6c0-.318.147-.623.41-.849.263-.225.619-.351.99-.351H8V6.2H5.2V5H8c.371 0 .727.126.99.351.262.226.41.53.41.849v1.2c0 .318-.148.623-.41.849A1.527 1.527 0 018 8.6H6.6v1.2h2.8z"/>
</svg>
