<svg xmlns="http://www.w3.org/2000/svg" viewBox="0 0 16 16">
  <path d="M13.177 2l-.981.958c1.897 1.852 1.897 4.983 0 6.836l.981.958c2.43-2.372 2.43-6.38 0-8.752zm-3.064 2.991c.393.384.61.876.61 1.385s-.217 1-.61 1.384l.982.959c.655-.64 1.017-1.472 1.017-2.343s-.362-1.704-1.018-2.343l-.981.958zM3.804 2.958L2.823 2c-2.43 2.372-2.43 6.38 0 8.752l.981-.958c-1.897-1.853-1.897-4.984 0-6.836z"/>
  <path d="M4.558 4.033c-.655.64-1.017 1.472-1.017 2.343 0 .87.362 1.704 1.017 2.343l.982-.959c-.393-.383-.61-.875-.61-1.384 0-.51.217-1.001.61-1.385l-.982-.958zm4.657 2.173c0-.359-.146-.704-.407-.958a1.406 1.406 0 00-.982-.397c-.368 0-.721.143-.981.397a1.34 1.34 0 00-.407.958c0 .224.056.444.165.642.108.197.265.364.456.488L6.44 14h2.775l-.62-6.665c.375-.243.621-.658.621-1.129z"/>
</svg>
