<svg xmlns="http://www.w3.org/2000/svg" viewBox="0 0 16 16">
  <path d="M8.003 1c-.263 0-.523.053-.766.156a1.997 1.997 0 00-.649.444c-.185.19-.333.417-.434.666a2.1 2.1 0 00.215 1.97c.239.346.576.608.966.75v1.487H5.334v1.37h2v4.73a4.254 4.254 0 01-1.697-.668 4.382 4.382 0 01-1.28-1.326h.976v-1.37H2v3.422h1.336v-1.163a5.724 5.724 0 002.029 1.857A5.554 5.554 0 008.003 14a5.548 5.548 0 002.636-.673 5.718 5.718 0 002.028-1.856v1.16H14V9.208h-3.333v1.37h.973c-.33.528-.766.98-1.279 1.323a4.27 4.27 0 01-1.695.67v-4.73h2.001v-1.37H8.665v-1.49c.39-.14.729-.4.968-.746.24-.346.368-.76.368-1.185a2.08 2.08 0 00-.585-1.45A1.972 1.972 0 008.003 1zm0 1.366c.368 0 .663.308.663.685 0 .181-.07.355-.195.483a.657.657 0 01-.94 0 .692.692 0 01-.145-.745.686.686 0 01.362-.37.652.652 0 01.255-.053z"/>
</svg>
