<svg xmlns="http://www.w3.org/2000/svg" viewBox="0 0 16 16">
  <path d="M8 1C5.244 1 3 3.234 3 5.978c0 3.466 4.35 8.3 4.537 8.506L8 15l.463-.516C8.65 14.278 13 9.444 13 5.978 13 3.234 10.756 1 8 1zm0 12.115C6.638 11.49 4.25 8.18 4.25 5.978c0-.99.395-1.94 1.098-2.64a3.759 3.759 0 015.304 0c.703.7 1.098 1.65 1.098 2.64 0 2.383-2.656 5.824-3.75 7.137zm-.544-4.026H8.55v1.089H7.456v-1.09zM8 3.489c-.58 0-1.137.23-1.547.638-.41.408-.64.962-.64 1.54h1.093c0-.29.115-.566.32-.77a1.096 1.096 0 011.868.77c0 1.095-1.638.958-1.638 2.725H8.55c0-1.226 1.637-1.363 1.637-2.725 0-.578-.23-1.132-.64-1.54A2.192 2.192 0 008 3.489z"/>
</svg>
