<svg xmlns="http://www.w3.org/2000/svg" viewBox="0 0 16 16">
  <path d="M13.964 13.137l-3.896-3.895A4.46 4.46 0 0011 6.5c0-1.203-.47-2.331-1.319-3.182A4.467 4.467 0 006.5 2c-1.202 0-2.333.47-3.182 1.318A4.464 4.464 0 002 6.5c0 1.201.47 2.332 1.318 3.181A4.464 4.464 0 006.5 11a4.463 4.463 0 002.74-.93l3.896 3.894a.121.121 0 00.087.036.122.122 0 00.087-.036l.654-.652a.123.123 0 000-.175zm-5.088-4.26A3.342 3.342 0 016.5 9.86c-.897 0-1.74-.35-2.376-.984A3.342 3.342 0 013.14 6.5c0-.897.35-1.742.984-2.376A3.342 3.342 0 016.5 3.14c.897 0 1.741.348 2.376.984.634.636.984 1.479.984 2.376a3.34 3.34 0 01-.984 2.376z"/>
</svg>
