<svg xmlns="http://www.w3.org/2000/svg" viewBox="0 0 16 16">
  <path d="M8.001 10.1a2.19 2.19 0 01-1.526-.615A2.071 2.071 0 015.842 8c0-.557.228-1.091.633-1.485A2.19 2.19 0 018 5.9a2.19 2.19 0 011.527.615c.405.394.632.928.632 1.485s-.227 1.091-.632 1.485A2.19 2.19 0 018 10.1zm4.583-1.518c.025-.192.044-.384.044-.582a4.93 4.93 0 00-.044-.6l1.302-.978a.297.297 0 00.074-.384l-1.234-2.076a.307.307 0 00-.376-.132l-1.536.6a4.501 4.501 0 00-1.042-.588l-.229-1.59a.302.302 0 00-.106-.18A.318.318 0 009.235 2H6.768a.31.31 0 00-.309.252l-.228 1.59c-.389.15-.722.354-1.042.588l-1.536-.6a.307.307 0 00-.377.132L2.043 6.038a.29.29 0 00.074.384l1.301.978a4.993 4.993 0 00-.043.6c0 .198.019.39.043.582l-1.301.996a.29.29 0 00-.074.384l1.233 2.076c.074.132.241.18.377.132l1.536-.606c.32.24.653.444 1.042.594l.228 1.59a.31.31 0 00.309.252h2.467a.31.31 0 00.308-.252l.229-1.59a4.52 4.52 0 001.042-.594l1.536.606c.136.048.302 0 .376-.132l1.234-2.076a.297.297 0 00-.074-.384l-1.302-.996z"/>
</svg>
